<?xml version="1.0" encoding="utf-8"?>
<!-- Generator: Adobe Illustrator 24.1.2, SVG Export Plug-In . SVG Version: 6.00 Build 0)  -->
<svg version="1.1" id="Слой_1" xmlns="http://www.w3.org/2000/svg" xmlns:xlink="http://www.w3.org/1999/xlink" x="0px" y="0px"
	 viewBox="0 0 16 16" style="enable-background:new 0 0 16 16;" xml:space="preserve">
<style type="text/css">
	.st0{fill:#FFFFFF;}
</style>
<g>
	<path class="st0" d="M13.4,11H2.6C1.7,11,1,10.3,1,9.4V4.6C1,3.7,1.7,3,2.6,3h10.7C14.3,3,15,3.7,15,4.6v4.7
		C15,10.3,14.3,11,13.4,11z"/>
	<path d="M13.4,11.5H2.6c-1.2,0-2.1-1-2.1-2.1V4.6c0-1.2,1-2.1,2.1-2.1h10.7c1.2,0,2.1,1,2.1,2.1v4.7C15.5,10.5,14.5,11.5,13.4,11.5
		z M2.6,3.5C2,3.5,1.5,4,1.5,4.6v4.7c0,0.6,0.5,1.1,1.1,1.1h10.7c0.6,0,1.1-0.5,1.1-1.1V4.6c0-0.6-0.5-1.1-1.1-1.1H2.6z"/>
</g>
<g>
	<path d="M5,7.8L4.4,9.5H3.7l1.8-5.4h0.8l1.8,5.4H7.5L6.9,7.8H5z M6.8,7.3L6.2,5.7C6.1,5.4,6,5,6,4.7h0C5.9,5,5.8,5.4,5.7,5.7
		L5.1,7.3H6.8z"/>
	<path d="M11.2,9.5L11.1,9h0c-0.2,0.3-0.6,0.6-1.2,0.6C9.1,9.6,8.7,9,8.7,8.5C8.7,7.5,9.6,7,11,7V7c0-0.3-0.1-0.9-0.9-0.9
		c-0.4,0-0.7,0.1-1,0.3L9,5.9c0.3-0.2,0.8-0.3,1.3-0.3c1.2,0,1.5,0.8,1.5,1.6v1.4c0,0.3,0,0.7,0.1,0.9H11.2z M11.1,7.5
		c-0.8,0-1.6,0.1-1.6,0.9c0,0.5,0.3,0.7,0.7,0.7c0.5,0,0.8-0.3,0.9-0.6c0-0.1,0-0.2,0-0.2V7.5z"/>
</g>
</svg>
