<?xml version="1.0" encoding="utf-8"?>
<!-- Generator: Adobe Illustrator 24.1.2, SVG Export Plug-In . SVG Version: 6.00 Build 0)  -->
<svg version="1.1" id="Слой_1" xmlns="http://www.w3.org/2000/svg" xmlns:xlink="http://www.w3.org/1999/xlink" x="0px" y="0px"
	 viewBox="0 0 16 16" enable-background="new 0 0 16 16" xml:space="preserve">
<path fill="#FFFFFF" stroke="#000000" stroke-miterlimit="10" d="M8.5,8.5"/>
<g>
	<polygon fill="#FFFFFF" points="15.5,15.5 0.5,15.5 0.5,11 0.5,0.5 15.5,0.5 	"/>
	<path d="M16,16H0V0h16V16z M1,15h14V1H1V15z"/>
</g>
<path d="M5,6C3.9,6,3,5.1,3,4s0.9-2,2-2s2,0.9,2,2S6.1,6,5,6z M5,3C4.4,3,4,3.4,4,4s0.4,1,1,1s1-0.4,1-1S5.6,3,5,3z"/>
<g>
	<polyline fill="#FFFFFF" points="15.5,7.5 12.5,3.5 7.5,11.5 3.5,8.5 0.5,11.5 	"/>
	<polygon points="7.6,12.2 3.5,9.2 0.9,11.9 0.1,11.1 3.5,7.8 7.4,10.8 12.5,2.6 15.9,7.2 15.1,7.8 12.5,4.4 	"/>
</g>
</svg>
