<?xml version="1.0" encoding="utf-8"?>
<!-- Generator: Adobe Illustrator 24.1.2, SVG Export Plug-In . SVG Version: 6.00 Build 0)  -->
<svg version="1.1" id="Слой_1" xmlns="http://www.w3.org/2000/svg" xmlns:xlink="http://www.w3.org/1999/xlink" x="0px" y="0px"
	 viewBox="0 0 16 16" enable-background="new 0 0 16 16" xml:space="preserve">
<rect x="0.8" y="3.8" fill="none" width="15" height="12.3"/>
<g enable-background="new    ">
	<path d="M3,10.5l-1,3.1H0.6L4,3.8h1.5l3.3,9.8H7.5l-1-3.1H3z M6.2,9.6l-1-2.8C5,6.1,4.9,5.5,4.7,4.9h0C4.5,5.5,4.4,6.1,4.2,6.7
		l-1,2.8H6.2z"/>
	<path d="M14.2,13.6l-0.1-0.9h0c-0.4,0.6-1.1,1-2.2,1c-1.4,0-2.2-1-2.2-2c0-1.7,1.5-2.6,4.2-2.6V9c0-0.6-0.2-1.6-1.6-1.6
		c-0.7,0-1.3,0.2-1.8,0.5l-0.3-0.8c0.6-0.4,1.4-0.6,2.3-0.6c2.2,0,2.7,1.5,2.7,2.9v2.6c0,0.6,0,1.2,0.1,1.7H14.2z M14,10
		c-1.4,0-3,0.2-3,1.6c0,0.8,0.6,1.2,1.2,1.2c0.9,0,1.5-0.6,1.7-1.2c0-0.1,0.1-0.3,0.1-0.4V10z"/>
</g>
</svg>
