<?xml version="1.0" encoding="utf-8"?>
<!-- Generator: Adobe Illustrator 24.1.2, SVG Export Plug-In . SVG Version: 6.00 Build 0)  -->
<svg version="1.1" id="Слой_1" xmlns="http://www.w3.org/2000/svg" xmlns:xlink="http://www.w3.org/1999/xlink" x="0px" y="0px"
	 viewBox="0 0 16 16" enable-background="new 0 0 16 16" xml:space="preserve">
<g>
	<path fill="#FFFFFF" d="M1.4,9.5c-0.5,0-0.9-0.4-0.9-0.9V1.4c0-0.5,0.4-0.9,0.9-0.9h7.3c0.5,0,0.9,0.4,0.9,0.9v7.3
		c0,0.5-0.4,0.9-0.9,0.9L1.4,9.5L1.4,9.5z"/>
	<path d="M8.6,1C8.8,1,9,1.2,9,1.4v7.3C9,8.8,8.8,9,8.6,9H1.4C1.2,9,1,8.8,1,8.6V1.4C1,1.2,1.2,1,1.4,1H8.6 M8.6,0H1.4
		C0.6,0,0,0.6,0,1.4v7.3C0,9.4,0.6,10,1.4,10h7.3C9.4,10,10,9.4,10,8.6V1.4C10,0.6,9.4,0,8.6,0L8.6,0z"/>
</g>
<path fill="#FFFFFF" stroke="#000000" stroke-miterlimit="10" d="M8.5,8.5"/>
<g>
	<path fill="#FFFFFF" d="M4.4,12.5c-0.5,0-0.9-0.4-0.9-0.9V4.4c0-0.5,0.4-0.9,0.9-0.9h7.3c0.5,0,0.9,0.4,0.9,0.9v7.3
		c0,0.5-0.4,0.9-0.9,0.9H4.4V12.5z"/>
	<path d="M11.6,4C11.8,4,12,4.2,12,4.4v7.3c0,0.2-0.2,0.4-0.4,0.4H4.4C4.2,12,4,11.8,4,11.6V4.4C4,4.2,4.2,4,4.4,4H11.6 M11.6,3H4.4
		C3.6,3,3,3.6,3,4.4v7.3C3,12.4,3.6,13,4.4,13h7.3c0.7,0,1.4-0.6,1.4-1.4V4.4C13,3.6,12.4,3,11.6,3L11.6,3z"/>
</g>
<g>
	<path fill="#FFFFFF" d="M7.4,15.5c-0.5,0-0.9-0.4-0.9-0.9V7.4c0-0.5,0.4-0.9,0.9-0.9h7.3c0.5,0,0.9,0.4,0.9,0.9v7.3
		c0,0.5-0.4,0.9-0.9,0.9H7.4V15.5z"/>
	<path d="M14.6,7C14.8,7,15,7.2,15,7.4v7.3c0,0.2-0.2,0.4-0.4,0.4H7.4C7.2,15,7,14.8,7,14.6V7.4C7,7.2,7.2,7,7.4,7H14.6 M14.6,6H7.4
		C6.6,6,6,6.6,6,7.4v7.3C6,15.4,6.6,16,7.4,16h7.3c0.7,0,1.4-0.6,1.4-1.4V7.4C16,6.6,15.4,6,14.6,6L14.6,6z"/>
</g>
</svg>
