<?xml version="1.0" encoding="utf-8"?>
<!-- Generator: Adobe Illustrator 24.1.2, SVG Export Plug-In . SVG Version: 6.00 Build 0)  -->
<svg version="1.1" id="Слой_1" xmlns="http://www.w3.org/2000/svg" xmlns:xlink="http://www.w3.org/1999/xlink" x="0px" y="0px"
	 viewBox="0 0 16 16" enable-background="new 0 0 16 16" xml:space="preserve">
<g>
	<path fill="#FFFFFF" d="M3.8,15.5c-1.8,0-3.3-1.5-3.3-3.3V3.8C0.5,2,2,0.5,3.8,0.5h8.4c1.8,0,3.3,1.5,3.3,3.3v8.4
		c0,1.8-1.5,3.3-3.3,3.3H3.8z"/>
	<path d="M12.2,1C13.7,1,15,2.3,15,3.8v8.4c0,1.5-1.3,2.8-2.8,2.8H3.8C2.3,15,1,13.7,1,12.2V3.8C1,2.3,2.3,1,3.8,1H12.2 M12.2,0H3.8
		C1.7,0,0,1.7,0,3.8v8.4C0,14.3,1.7,16,3.8,16h8.4c2.1,0,3.8-1.7,3.8-3.8V3.8C16,1.7,14.3,0,12.2,0L12.2,0z"/>
</g>
</svg>
